<svg width="24" height="24" viewBox="0 0 24 24" fill="none" xmlns="http://www.w3.org/2000/svg">
<path d="M6.2851 13.9713V8.62945C6.2851 3.7902 17.7137 3.79014 17.7137 8.62952V13.9713C17.7137 14.0935 17.7584 14.211 17.8394 14.3024L20.5267 17.337C21.0982 17.9823 20.64 19 19.7781 19H4.2207C3.35873 19 2.9006 17.9823 3.47206 17.337L6.15942 14.3024C6.2404 14.211 6.2851 14.0935 6.2851 13.9713Z" fill="#14142B"/>
<path fill-rule="evenodd" clip-rule="evenodd" d="M16.2972 5.25428C17.5241 5.94696 18.4642 7.0682 18.4642 8.62952V13.8761L21.0887 16.8398C22.0887 17.9691 21.287 19.75 19.7786 19.75H4.22119C2.71274 19.75 1.91101 17.9691 2.91106 16.8398L5.53559 13.8761V8.62945C5.53559 7.06816 6.47571 5.94693 7.70258 5.25427C8.91583 4.56929 10.4805 4.25 11.9999 4.25C13.5192 4.25 15.0839 4.56929 16.2972 5.25428ZM8.44003 6.56047C7.52404 7.07762 7.03559 7.77112 7.03559 8.62945V13.9713C7.03559 14.2774 6.92338 14.5715 6.7214 14.7996L4.03403 17.8343C3.89116 17.9956 4.0057 18.25 4.22119 18.25H19.7786C19.9941 18.25 20.1086 17.9956 19.9657 17.8343L17.2784 14.7996L17.8398 14.3024L17.2784 14.7996C17.0764 14.5715 16.9642 14.2774 16.9642 13.9713V8.62952C16.9642 7.77115 16.4757 7.07763 15.5597 6.56047C14.6301 6.03563 13.3377 5.75 11.9999 5.75C10.6621 5.75 9.36964 6.03563 8.44003 6.56047Z" fill="#14142B"/>
<path d="M14 3.5C14 4.60457 13.1046 5.5 12 5.5C10.8954 5.5 10 4.60457 10 3.5C10 2.39543 10.8954 1.5 12 1.5C13.1046 1.5 14 2.39543 14 3.5Z" fill="#14142B"/>
<path d="M15.4996 19C15.4996 19.7956 15.1308 20.5587 14.4745 21.1213C13.8181 21.6839 12.9278 22 11.9996 22C11.0713 22 10.1563 21.6839 9.4999 21.1213C8.84352 20.5587 8.5 19.7956 8.5 19H11.9996H15.4996Z" fill="white"/>
<path fill-rule="evenodd" clip-rule="evenodd" d="M7.75 18.25H16.2496V19C16.2496 20.0351 15.7689 20.9996 14.9626 21.6908C14.1598 22.3789 13.0926 22.75 11.9996 22.75C10.9117 22.75 9.81814 22.3819 9.01181 21.6908C8.19323 20.9891 7.75 20.0198 7.75 19L7.75 18.25ZM9.39798 19.75C9.51935 20.0445 9.71565 20.3184 9.988 20.5519C10.4944 20.986 11.231 21.25 11.9996 21.25C12.7631 21.25 13.4764 20.989 13.9864 20.5519C14.2624 20.3153 14.4642 20.0408 14.5908 19.75H9.39798Z" fill="#14142B"/>
</svg>
