<svg width="24" height="24" viewBox="0 0 24 24" fill="none" xmlns="http://www.w3.org/2000/svg">
<path d="M12 21.8382V9.21337C12 9.1711 12.0266 9.13341 12.0664 9.11919L21.8664 5.61919C21.9315 5.59593 22 5.64421 22 5.71337V16.9382C22 16.9761 21.9786 17.0107 21.9447 17.0277L12.1447 21.9277C12.0782 21.9609 12 21.9126 12 21.8382Z" fill="#111214"/>
<path fill-rule="evenodd" clip-rule="evenodd" d="M21.6141 4.91157C22.1677 4.71387 22.75 5.12424 22.75 5.71205V16.9369C22.75 17.2589 22.5681 17.5532 22.2801 17.6972L12.4801 22.5972C11.915 22.8798 11.25 22.4688 11.25 21.8369V9.21205C11.25 8.85283 11.4758 8.53239 11.8141 8.41157L21.6141 4.91157L21.8664 5.61787L21.6141 4.91157ZM21.25 6.6344L12.75 9.67011V20.7852L21.25 16.5352V6.6344Z" fill="#A1A0A3"/>
<path d="M2.13363 5.61919L11.9336 9.11919C11.9734 9.13341 12 9.1711 12 9.21337V21.8382C12 21.9126 11.9218 21.9609 11.8553 21.9277L2.05528 17.0277C2.0214 17.0107 2 16.9761 2 16.9382V5.71337C2 5.64421 2.06851 5.59593 2.13363 5.61919Z" fill="#111214"/>
<path fill-rule="evenodd" clip-rule="evenodd" d="M1.25 5.71205C1.25 5.12425 1.83232 4.71387 2.38589 4.91157L12.1859 8.41157C12.5242 8.53239 12.75 8.85283 12.75 9.21205V21.8369C12.75 22.4688 12.085 22.8798 11.5199 22.5972L1.71987 17.6972C1.4319 17.5532 1.25 17.2589 1.25 16.9369V5.71205ZM2.75 6.6344V16.5352L11.25 20.7852V9.67011L2.75 6.6344Z" fill="#A1A0A3"/>
<path d="M11.9663 2.01169L2.26363 5.47693C2.17514 5.50853 2.17514 5.63367 2.26363 5.66528L11.9663 9.13052C11.9881 9.13829 12.0118 9.13829 12.0336 9.13052L21.7363 5.66528C21.8247 5.63367 21.8247 5.50853 21.7363 5.47693L12.0336 2.01169C12.0118 2.00392 11.9881 2.00392 11.9663 2.01169Z" fill="#111214"/>
<path fill-rule="evenodd" clip-rule="evenodd" d="M11.9999 2.79607L19.77 5.5711L11.9999 8.34613L4.22985 5.5711L11.9999 2.79607ZM11.7141 1.30538C11.8989 1.23935 12.101 1.23935 12.2858 1.30538L12.2858 1.30538L21.9885 4.77062C22.7407 5.03925 22.7406 6.10296 21.9885 6.37158L12.2858 9.83682C12.2858 9.83682 12.2858 9.83682 12.2858 9.83682C12.101 9.90285 11.8989 9.90285 11.7141 9.83682C11.7141 9.83682 11.7141 9.83682 11.714 9.83682L2.01138 6.37158C1.25922 6.10295 1.25923 5.03925 2.01138 4.77062L2.01138 4.77062L11.7141 1.30538Z" fill="#A1A0A3"/>
</svg>
