<svg width="22" height="22" viewBox="0 0 22 22" fill="none" xmlns="http://www.w3.org/2000/svg">
<path fill-rule="evenodd" clip-rule="evenodd" d="M0.25 7.01172C0.25 4.94065 1.92893 3.26172 4 3.26172H18C20.0711 3.26172 21.75 4.94065 21.75 7.01172V17.9992C21.75 20.0703 20.0711 21.7492 18 21.7492H4C1.92893 21.7492 0.25 20.0703 0.25 17.9992V7.01172ZM4 4.76172C2.75736 4.76172 1.75 5.76908 1.75 7.01172V17.9992C1.75 19.2418 2.75736 20.2492 4 20.2492H18C19.2426 20.2492 20.25 19.2418 20.25 17.9992V7.01172C20.25 5.76908 19.2426 4.76172 18 4.76172H4Z" fill="white"/>
<path fill-rule="evenodd" clip-rule="evenodd" d="M6 0.249744C6.41421 0.249603 6.75011 0.585275 6.75026 0.999488L6.75128 4.01223C6.75143 4.42644 6.41575 4.76235 6.00154 4.76249C5.58733 4.76263 5.25143 4.42696 5.25128 4.01274L5.25026 1C5.25011 0.585786 5.58579 0.249885 6 0.249744Z" fill="white"/>
<path fill-rule="evenodd" clip-rule="evenodd" d="M16 0.25C16.4142 0.25 16.75 0.585786 16.75 1V3.63158C16.75 4.04579 16.4142 4.38158 16 4.38158C15.5858 4.38158 15.25 4.04579 15.25 3.63158V1C15.25 0.585786 15.5858 0.25 16 0.25Z" fill="white"/>
<path fill-rule="evenodd" clip-rule="evenodd" d="M4.25 8.36914C4.25 7.95493 4.58579 7.61914 5 7.61914L17 7.61914C17.4142 7.61914 17.75 7.95493 17.75 8.36914C17.75 8.78336 17.4142 9.11914 17 9.11914L5 9.11914C4.58579 9.11914 4.25 8.78335 4.25 8.36914Z" fill="white"/>
</svg>
