<svg width="24" height="24" viewBox="0 0 24 24" fill="none" xmlns="http://www.w3.org/2000/svg">
<path d="M2 5C2 3.34314 3.34315 2 5 2H7.57143C9.22828 2 10.5714 3.34315 10.5714 5V7.57143C10.5714 9.22828 9.22828 10.5714 7.57143 10.5714H5C3.34314 10.5714 2 9.22828 2 7.57143V5Z" fill="#F2F0F5"/>
<path fill-rule="evenodd" clip-rule="evenodd" d="M1.25 5C1.25 2.92893 2.92893 1.25 5 1.25H7.57143C9.6425 1.25 11.3214 2.92893 11.3214 5V7.57143C11.3214 9.6425 9.6425 11.3214 7.57143 11.3214H5C2.92893 11.3214 1.25 9.6425 1.25 7.57143V5ZM5 2.75C3.75736 2.75 2.75 3.75736 2.75 5V7.57143C2.75 8.81407 3.75736 9.82143 5 9.82143H7.57143C8.81407 9.82143 9.82143 8.81407 9.82143 7.57143V5C9.82143 3.75736 8.81407 2.75 7.57143 2.75H5Z" fill="#F2F0F5"/>
<path d="M13.4287 5C13.4287 3.34314 14.7719 2 16.4287 2H19.0001C20.657 2 22.0001 3.34315 22.0001 5V7.57143C22.0001 9.22828 20.657 10.5714 19.0001 10.5714H16.4287C14.7719 10.5714 13.4287 9.22828 13.4287 7.57143V5Z" fill="#F2F0F5"/>
<path fill-rule="evenodd" clip-rule="evenodd" d="M12.6787 5C12.6787 2.92893 14.3576 1.25 16.4287 1.25H19.0001C21.0712 1.25 22.7501 2.92893 22.7501 5V7.57143C22.7501 9.6425 21.0712 11.3214 19.0001 11.3214H16.4287C14.3576 11.3214 12.6787 9.6425 12.6787 7.57143V5ZM16.4287 2.75C15.1861 2.75 14.1787 3.75736 14.1787 5V7.57143C14.1787 8.81407 15.1861 9.82143 16.4287 9.82143H19.0001C20.2428 9.82143 21.2501 8.81407 21.2501 7.57143V5C21.2501 3.75736 20.2428 2.75 19.0001 2.75H16.4287Z" fill="#F2F0F5"/>
<path d="M13.4287 16.4277C13.4287 14.7709 14.7719 13.4277 16.4287 13.4277H19.0001C20.657 13.4277 22.0001 14.7709 22.0001 16.4277V18.9992C22.0001 20.656 20.657 21.9992 19.0001 21.9992H16.4287C14.7719 21.9992 13.4287 20.656 13.4287 18.9992V16.4277Z" fill="#F2F0F5"/>
<path fill-rule="evenodd" clip-rule="evenodd" d="M12.6787 16.4277C12.6787 14.3567 14.3576 12.6777 16.4287 12.6777H19.0001C21.0712 12.6777 22.7501 14.3567 22.7501 16.4277V18.9992C22.7501 21.0702 21.0712 22.7492 19.0001 22.7492H16.4287C14.3576 22.7492 12.6787 21.0702 12.6787 18.9992V16.4277ZM16.4287 14.1777C15.1861 14.1777 14.1787 15.1851 14.1787 16.4277V18.9992C14.1787 20.2418 15.1861 21.2492 16.4287 21.2492H19.0001C20.2428 21.2492 21.2501 20.2418 21.2501 18.9992V16.4277C21.2501 15.1851 20.2428 14.1777 19.0001 14.1777H16.4287Z" fill="#F2F0F5"/>
<path d="M2 16.4277C2 14.7709 3.34315 13.4277 5 13.4277H7.57143C9.22828 13.4277 10.5714 14.7709 10.5714 16.4277V18.9992C10.5714 20.656 9.22828 21.9992 7.57143 21.9992H5C3.34314 21.9992 2 20.656 2 18.9992V16.4277Z" fill="#F2F0F5"/>
<path fill-rule="evenodd" clip-rule="evenodd" d="M1.25 16.4277C1.25 14.3567 2.92893 12.6777 5 12.6777H7.57143C9.6425 12.6777 11.3214 14.3567 11.3214 16.4277V18.9992C11.3214 21.0702 9.6425 22.7492 7.57143 22.7492H5C2.92893 22.7492 1.25 21.0702 1.25 18.9992V16.4277ZM5 14.1777C3.75736 14.1777 2.75 15.1851 2.75 16.4277V18.9992C2.75 20.2418 3.75736 21.2492 5 21.2492H7.57143C8.81407 21.2492 9.82143 20.2418 9.82143 18.9992V16.4277C9.82143 15.1851 8.81407 14.1777 7.57143 14.1777H5Z" fill="#F2F0F5"/>
</svg>
