<svg width="30" height="48" viewBox="0 0 30 48" fill="none" xmlns="http://www.w3.org/2000/svg">
<path d="M2.87029 12.947L0 0L2.86387 12.9536L2.87029 12.947Z" fill="#F2F0F5"/>
<path d="M16.6113 35.0156L23.6939 42.3053L16.6113 35.0156Z" fill="#F2F0F5"/>
<path d="M17.9345 0H0L2.87029 12.947C4.96361 11.3939 7.53211 10.4686 10.3125 10.4686C17.363 10.4686 23.0779 16.3506 23.0779 23.6007C23.0779 25.894 22.5064 28.0486 21.4983 29.9255L27.8682 36.4816C27.958 36.29 28.0544 36.0983 28.1443 35.8934C29.4092 33.0119 30 29.866 30 26.7003V0H17.9345Z" fill="#F2F0F5"/>
<path d="M2.86387 12.9536L0 0V15.888C0.796233 14.7579 1.76584 13.7665 2.86387 12.9536V12.9536Z" fill="#F2F0F5"/>
<path d="M6.55591 29.6503L4.38553 19.8359C3.72414 20.933 3.33887 22.2218 3.33887 23.6031C3.33887 26.1409 4.62311 28.3681 6.55591 29.6437V29.6503Z" fill="#F2F0F5"/>
<path d="M10.3125 36.7397C6.06807 36.7397 2.31807 34.5984 0 31.3203V47.8428H10.5758C11.9563 47.7767 18.4996 47.2282 23.6944 42.3045L16.6117 35.0147C14.7496 36.1052 12.6049 36.7331 10.3125 36.7331V36.7397Z" fill="#F2F0F5"/>
<path d="M10.3123 23.7068V16.4766C5.81104 16.4766 3.33887 19.9265 3.33887 23.6011C3.33887 27.5664 6.45959 30.7784 10.3123 30.7784C14.1651 30.7784 17.2858 27.5664 17.2858 23.6011C17.2858 22.9005 17.183 22.233 17.0033 21.5919L10.3059 23.7002L10.3123 23.7068Z" fill="#F2F0F5"/>
</svg>
