<svg width="24" height="24" viewBox="0 0 24 24" fill="none" xmlns="http://www.w3.org/2000/svg">
<path fill-rule="evenodd" clip-rule="evenodd" d="M5 2.75C4.30964 2.75 3.75 3.30964 3.75 4V20C3.75 20.6904 4.30964 21.25 5 21.25H19C19.6904 21.25 20.25 20.6904 20.25 20V8.31066L14.6893 2.75H5ZM2.25 4C2.25 2.48122 3.48122 1.25 5 1.25H14.7929C15.1244 1.25 15.4424 1.3817 15.6768 1.61612L21.3839 7.32322C21.6183 7.55764 21.75 7.87559 21.75 8.20711V20C21.75 21.5188 20.5188 22.75 19 22.75H5C3.48122 22.75 2.25 21.5188 2.25 20V4Z" fill="white"/>
<path fill-rule="evenodd" clip-rule="evenodd" d="M14.25 2.24233C14.25 1.48506 15.1656 1.10582 15.701 1.64129L21.3596 7.29987C21.8951 7.83533 21.5159 8.75091 20.7586 8.75091H15.1C14.6306 8.75091 14.25 8.37035 14.25 7.90091V2.24233ZM15.75 3.81157V7.25091H19.1893L15.75 3.81157Z" fill="white"/>
<path fill-rule="evenodd" clip-rule="evenodd" d="M7.25 12C7.25 11.5858 7.58579 11.25 8 11.25H16C16.4142 11.25 16.75 11.5858 16.75 12C16.75 12.4142 16.4142 12.75 16 12.75H8C7.58579 12.75 7.25 12.4142 7.25 12Z" fill="white"/>
<path fill-rule="evenodd" clip-rule="evenodd" d="M7.25 16C7.25 15.5858 7.58579 15.25 8 15.25H16C16.4142 15.25 16.75 15.5858 16.75 16C16.75 16.4142 16.4142 16.75 16 16.75H8C7.58579 16.75 7.25 16.4142 7.25 16Z" fill="white"/>
</svg>
