<svg width="22" height="22" viewBox="0 0 22 22" fill="none" xmlns="http://www.w3.org/2000/svg">
<path fill-rule="evenodd" clip-rule="evenodd" d="M0.252583 6.00195C0.252775 2.82631 2.82729 0.252108 6.00293 0.2523L16 0.252902C19.1757 0.253093 21.7499 2.82761 21.7497 6.00325L21.7491 16.0004C21.7489 19.176 19.1744 21.7502 15.9987 21.75L6.00163 21.7494C2.82599 21.7492 0.25179 19.1747 0.251981 15.9991L0.252583 6.00195ZM6.00284 1.7523C3.65563 1.75216 1.75272 3.65483 1.75258 6.00204L1.75198 15.9992C1.75184 18.3464 3.65451 20.2493 6.00172 20.2494L15.9988 20.25C18.346 20.2502 20.249 18.3475 20.2491 16.0003L20.2497 6.00316C20.2498 3.65595 18.3472 1.75304 16 1.7529L6.00284 1.7523Z" fill="white"/>
<path fill-rule="evenodd" clip-rule="evenodd" d="M10.9995 4.53672C11.4137 4.53672 11.7495 4.87251 11.7495 5.28672V12.4281C11.7495 12.8423 11.4137 13.1781 10.9995 13.1781C10.5853 13.1781 10.2495 12.8423 10.2495 12.4281V5.28672C10.2495 4.87251 10.5853 4.53672 10.9995 4.53672Z" fill="white"/>
<path fill-rule="evenodd" clip-rule="evenodd" d="M6.84327 9.81664C7.10202 9.49319 7.57399 9.44075 7.89744 9.6995L10.9996 12.1812L14.1018 9.6995C14.4252 9.44075 14.8972 9.49319 15.156 9.81664C15.4147 10.1401 15.3623 10.6121 15.0388 10.8708L11.5306 13.6774C11.2201 13.9257 10.779 13.9257 10.4686 13.6774L6.9604 10.8708C6.63695 10.6121 6.58451 10.1401 6.84327 9.81664Z" fill="white"/>
<path fill-rule="evenodd" clip-rule="evenodd" d="M5.96484 16.7129C5.96484 16.2987 6.30063 15.9629 6.71484 15.9629H15.2845C15.6987 15.9629 16.0345 16.2987 16.0345 16.7129C16.0345 17.1271 15.6987 17.4629 15.2845 17.4629H6.71484C6.30063 17.4629 5.96484 17.1271 5.96484 16.7129Z" fill="white"/>
</svg>
