<svg width="22" height="22" viewBox="0 0 22 22" fill="none" xmlns="http://www.w3.org/2000/svg">
<path fill-rule="evenodd" clip-rule="evenodd" d="M3 12.75C2.30964 12.75 1.75 13.3096 1.75 14V19C1.75 19.6904 2.30964 20.25 3 20.25H19C19.6904 20.25 20.25 19.6904 20.25 19V14C20.25 13.3096 19.6904 12.75 19 12.75H15.9666C15.5198 15.1205 13.0826 16.125 11 16.125C8.91741 16.125 6.48024 15.1205 6.03338 12.75H3ZM0.25 14C0.25 12.4812 1.48122 11.25 3 11.25H6.21429C6.93235 11.25 7.40667 11.823 7.49286 12.3867C7.7015 13.7514 9.16667 14.625 11 14.625C12.8333 14.625 14.2985 13.7514 14.5071 12.3867C14.5933 11.823 15.0677 11.25 15.7857 11.25H19C20.5188 11.25 21.75 12.4812 21.75 14V19C21.75 20.5188 20.5188 21.75 19 21.75H3C1.48122 21.75 0.25 20.5188 0.25 19V14Z" fill="white"/>
<path fill-rule="evenodd" clip-rule="evenodd" d="M11 10.75C10.5858 10.75 10.25 10.4142 10.25 10L10.25 1C10.25 0.585787 10.5858 0.25 11 0.25C11.4142 0.25 11.75 0.585787 11.75 1L11.75 10C11.75 10.4142 11.4142 10.75 11 10.75Z" fill="white"/>
<path fill-rule="evenodd" clip-rule="evenodd" d="M11 9.75026L8.59996 6.55026C8.35143 6.21889 7.88133 6.15173 7.54996 6.40026C7.21858 6.64879 7.15143 7.11889 7.39996 7.45026L10.32 11.3436C10.66 11.7969 11.34 11.7969 11.68 11.3436L14.6 7.45026C14.8485 7.11889 14.7813 6.64879 14.45 6.40026C14.1186 6.15173 13.6485 6.21889 13.4 6.55026L11 9.75026Z" fill="white"/>
</svg>
