<svg width="108" height="48" viewBox="0 0 108 48" fill="none" xmlns="http://www.w3.org/2000/svg">
<path d="M43.5112 28.2974C44.1448 28.905 44.9731 29.4658 46.0922 29.4658C47.6268 29.4658 48.6239 28.4428 48.6239 26.8615V16H52.0825V26.9108C52.0825 30.7589 49.6962 32.535 46.3596 32.535C44.703 32.535 43.1685 32.0961 42 30.9511L43.5086 28.2974H43.5112Z" fill="#F2F0F5"/>
<path d="M61.5313 20.1875C65.0367 20.1875 67.423 22.8178 67.423 26.6659V27.3488H58.6803C58.875 28.8341 60.0695 30.0752 62.0662 30.0752C63.162 30.0752 64.4525 29.6364 65.2081 28.9068L66.5713 30.9035C65.3769 31.9993 63.5515 32.5342 61.7261 32.5342C58.1454 32.5342 55.4424 30.1246 55.4424 26.3492C55.4424 22.9399 57.9507 20.1875 61.5313 20.1875V20.1875ZM58.6336 25.2534H64.4291C64.3564 24.1343 63.5774 22.649 61.5313 22.649C59.6073 22.649 58.779 24.085 58.6336 25.2534Z" fill="#F2F0F5"/>
<path d="M70.9547 28.542C71.8064 29.3443 73.5591 30.1493 75.021 30.1493C76.3608 30.1493 76.9944 29.6871 76.9944 28.9574C76.9944 28.1291 75.9713 27.8383 74.6315 27.5683C72.6113 27.1788 70.0044 26.6906 70.0044 23.8915C70.0044 21.9181 71.7337 20.1914 74.8262 20.1914C76.823 20.1914 78.4069 20.8717 79.5494 21.7987L78.3316 23.9175C77.6253 23.1619 76.2855 22.5543 74.8496 22.5543C73.7305 22.5543 72.9982 22.9671 72.9982 23.65C72.9982 24.3797 73.9226 24.6471 75.2391 24.9172C77.2592 25.3067 79.9622 25.8415 79.9622 28.7653C79.9622 30.9334 78.1369 32.5407 74.873 32.5407C72.8269 32.5407 70.8561 31.8604 69.6123 30.7153L70.9521 28.5472L70.9547 28.542Z" fill="#F2F0F5"/>
<path d="M83.5456 28.542C84.3972 29.3443 86.1499 30.1493 87.6118 30.1493C88.9516 30.1493 89.5852 29.6871 89.5852 28.9574C89.5852 28.1291 88.5621 27.8383 87.2223 27.5683C85.2022 27.1788 82.5952 26.6906 82.5952 23.8915C82.5952 21.9181 84.3245 20.1914 87.417 20.1914C89.4138 20.1914 90.9977 20.8717 92.1402 21.7987L90.9224 23.9175C90.2161 23.1619 88.8763 22.5543 87.4404 22.5543C86.3213 22.5543 85.5891 22.9671 85.5891 23.65C85.5891 24.3797 86.5134 24.6471 87.8299 24.9172C89.85 25.3067 92.5531 25.8415 92.5531 28.7653C92.5531 30.9334 90.7277 32.5407 87.4638 32.5407C85.4177 32.5407 83.4469 31.8604 82.2031 30.7153L83.543 28.5472L83.5456 28.542Z" fill="#F2F0F5"/>
<path d="M101.15 20.1875C104.655 20.1875 107.041 22.8178 107.041 26.6659V27.3488H98.2985C98.4932 28.8341 99.6876 30.0752 101.684 30.0752C102.78 30.0752 104.071 29.6364 104.826 28.9068L106.189 30.9035C104.995 31.9993 103.17 32.5342 101.344 32.5342C97.7636 32.5342 95.0605 30.1246 95.0605 26.3492C95.0605 22.9399 97.5688 20.1875 101.15 20.1875V20.1875ZM98.2517 25.2534H104.047C103.975 24.1343 103.196 22.649 101.15 22.649C99.2254 22.649 98.3971 24.085 98.2517 25.2534V25.2534Z" fill="#F2F0F5"/>
<path d="M2.87029 12.947L0 0L2.86387 12.9536L2.87029 12.947Z" fill="#F2F0F5"/>
<path d="M16.6113 35.0137L23.6939 42.3034L16.6113 35.0137Z" fill="#F2F0F5"/>
<path d="M17.9345 0H0L2.87029 12.947C4.96361 11.3939 7.53211 10.4686 10.3125 10.4686C17.363 10.4686 23.0779 16.3506 23.0779 23.6007C23.0779 25.894 22.5064 28.0486 21.4983 29.9255L27.8682 36.4816C27.958 36.29 28.0544 36.0983 28.1443 35.8934C29.4092 33.0119 30 29.866 30 26.7003V0H17.9345Z" fill="#F2F0F5"/>
<path d="M2.86387 12.9536L0 0V15.888C0.796233 14.7579 1.76584 13.7665 2.86387 12.9536V12.9536Z" fill="#F2F0F5"/>
<path d="M6.55591 29.6483L4.38553 19.834C3.72414 20.9311 3.33887 22.2198 3.33887 23.6011C3.33887 26.139 4.62311 28.3662 6.55591 29.6417V29.6483Z" fill="#F2F0F5"/>
<path d="M10.3125 36.7397C6.06807 36.7397 2.31807 34.5984 0 31.3203V47.8428H10.5758C11.9563 47.7767 18.4996 47.2282 23.6944 42.3045L16.6117 35.0147C14.7496 36.1052 12.6049 36.7331 10.3125 36.7331V36.7397Z" fill="#F2F0F5"/>
<path d="M10.3123 23.7068V16.4766C5.81104 16.4766 3.33887 19.9265 3.33887 23.6011C3.33887 27.5664 6.45959 30.7784 10.3123 30.7784C14.1651 30.7784 17.2858 27.5664 17.2858 23.6011C17.2858 22.9005 17.183 22.233 17.0033 21.5919L10.3059 23.7002L10.3123 23.7068Z" fill="#F2F0F5"/>
</svg>
