<svg width="24" height="24" viewBox="0 0 24 24" fill="none" xmlns="http://www.w3.org/2000/svg">
<path fill-rule="evenodd" clip-rule="evenodd" d="M16.75 12C16.75 12.4142 16.4142 12.75 16 12.75L3 12.75C2.58579 12.75 2.25 12.4142 2.25 12C2.25 11.5858 2.58579 11.25 3 11.25L16 11.25C16.4142 11.25 16.75 11.5858 16.75 12Z" fill="white"/>
<path fill-rule="evenodd" clip-rule="evenodd" d="M7.53033 17.5303C7.23744 17.8232 6.76256 17.8232 6.46967 17.5303L1.54038 12.601C1.20844 12.2691 1.20843 11.7309 1.54038 11.399L6.46967 6.46967C6.76256 6.17678 7.23744 6.17678 7.53033 6.46967C7.82322 6.76256 7.82322 7.23744 7.53033 7.53033L3.06066 12L7.53033 16.4697C7.82322 16.7626 7.82322 17.2374 7.53033 17.5303Z" fill="white"/>
<path fill-rule="evenodd" clip-rule="evenodd" d="M14.5837 2.66602C14.5837 2.2518 14.9194 1.91602 15.3337 1.91602H19.9003C20.3698 1.91602 20.7503 2.29658 20.7503 2.76602V21.2327C20.7503 21.7021 20.3698 22.0827 19.9003 22.0827H14.667C14.2528 22.0827 13.917 21.7469 13.917 21.3327C13.917 20.9185 14.2528 20.5827 14.667 20.5827H19.2503V3.41602H15.3337C14.9194 3.41602 14.5837 3.08023 14.5837 2.66602Z" fill="white"/>
</svg>
