<svg width="21" height="20" viewBox="0 0 21 20" fill="none" xmlns="http://www.w3.org/2000/svg">
<path d="M9.95062 4.16762H5.84248C5.40666 4.16762 4.98869 4.34321 4.68052 4.65577C4.37235 4.96833 4.19922 5.39225 4.19922 5.83428V15.0009C4.19922 15.443 4.37235 15.8669 4.68052 16.1795C4.98869 16.492 5.40666 16.6676 5.84248 16.6676H14.8804C15.3162 16.6676 15.7342 16.492 16.0424 16.1795C16.3505 15.8669 16.5237 15.443 16.5237 15.0009V10.8343M15.3619 2.98928C15.5135 2.8301 15.6948 2.70313 15.8953 2.61578C16.0958 2.52843 16.3114 2.48245 16.5296 2.48053C16.7478 2.47861 16.9641 2.52078 17.1661 2.60458C17.368 2.68838 17.5515 2.81214 17.7058 2.96862C17.8601 3.12511 17.9821 3.3112 18.0647 3.51603C18.1474 3.72085 18.1889 3.94032 18.187 4.16162C18.1852 4.38292 18.1398 4.60162 18.0537 4.80496C17.9676 5.0083 17.8424 5.1922 17.6854 5.34595L10.6309 12.5009H8.30736V10.1443L15.3619 2.98928Z" stroke="#2E65F3" stroke-width="1.4" stroke-linecap="round" stroke-linejoin="round"/>
</svg>
