<svg width="36" height="36" viewBox="0 0 36 36" fill="none" xmlns="http://www.w3.org/2000/svg">
<rect width="36" height="36" rx="8" fill="#FA6969"/>
<path d="M13.7548 16.4863C14.1453 16.8768 14.1453 17.5099 13.7548 17.9005L12.7071 18.9482C12.3165 19.3387 11.6834 19.3387 11.2929 18.9482L5.22615 12.8815C4.83563 12.491 4.83563 11.8578 5.22615 11.4673L5.75002 10.9434L6.27389 10.4195C6.66441 10.029 7.29758 10.029 7.6881 10.4195L13.7548 16.4863Z" fill="#FCFAFF"/>
<path d="M23.7959 19.0949C24.072 19.5732 23.9082 20.1848 23.4299 20.4609L22.1467 21.2018C21.6684 21.4779 21.0568 21.3141 20.7806 20.8358L17.0191 14.3207C16.743 13.8424 16.9069 13.2308 17.3852 12.9547L18.0268 12.5842L18.6684 12.2138C19.1467 11.9376 19.7583 12.1015 20.0344 12.5798L23.7959 19.0949Z" fill="#FCFAFF"/>
<path d="M18.3713 12.2129C18.8496 11.9367 19.4612 12.1006 19.7373 12.5789L20.4782 13.8621C20.7543 14.3404 20.5904 14.952 20.1121 15.2282L13.1252 19.262C12.6469 19.5382 12.0353 19.3743 11.7592 18.896L11.3888 18.2544L11.0183 17.6128C10.7422 17.1345 10.9061 16.5229 11.3844 16.2468L18.3713 12.2129Z" fill="#FCFAFF"/>
<path d="M26.9256 27.7948C26.9014 28.5354 26.1082 28.9934 25.4547 28.644L17.6966 24.4967C17.0049 24.1269 16.9888 23.141 17.6681 22.7488L25.7135 18.1037C26.3928 17.7115 27.2386 18.2185 27.2129 19.0024L26.9256 27.7948Z" fill="#FCFAFF"/>
</svg>
