<svg width="36" height="36" viewBox="0 0 36 36" fill="none" xmlns="http://www.w3.org/2000/svg">
<rect width="36" height="36" rx="8" fill="#3DCC79"/>
<path d="M9.61961 17.6958C10.2995 17.016 11.4017 17.016 12.0816 17.6958V17.6958C12.7614 18.3757 12.7614 19.4779 12.0816 20.1578L7.06259 25.1767C6.38274 25.8566 5.28049 25.8566 4.60064 25.1767V25.1767V25.1767C3.92079 24.4969 3.92079 23.3946 4.60064 22.7148L9.61961 17.6958Z" fill="#FCFAFF"/>
<path d="M20.8912 14.5662C21.4933 13.8166 22.5891 13.6971 23.3387 14.2992V14.2992C24.0882 14.9013 24.2078 15.9971 23.6057 16.7466L19.8223 21.4565C19.2202 22.2061 18.1245 22.3256 17.3749 21.7235V21.7235V21.7235C16.6253 21.1214 16.5058 20.0257 17.1079 19.2761L20.8912 14.5662Z" fill="#FCFAFF"/>
<path d="M18.4202 18.9354C19.3461 19.1944 19.8867 20.1549 19.6278 21.0808V21.0808C19.3688 22.0067 18.4083 22.5474 17.4824 22.2885L11.1397 20.5145C10.2138 20.2556 9.6731 19.295 9.93206 18.3691V18.3691V18.3691C10.191 17.4432 11.1516 16.9025 12.0775 17.1615L18.4202 18.9354Z" fill="#FCFAFF"/>
<path d="M22.5696 9.29919C25.0167 8.27169 27.6922 10.1697 27.5312 12.8188V12.8188C27.3606 15.623 24.1753 17.1481 21.8839 15.5227V15.5227C19.5926 13.8972 19.9793 10.3868 22.5696 9.29919V9.29919Z" fill="#FCFAFF"/>
</svg>
