<svg width="20" height="22" viewBox="0 0 20 22" fill="none" xmlns="http://www.w3.org/2000/svg">
<path fill-rule="evenodd" clip-rule="evenodd" d="M5.28613 21.75C5.70035 21.75 6.03613 21.4142 6.03613 21L6.03613 2.42857C6.03613 2.01436 5.70035 1.67857 5.28613 1.67857C4.87192 1.67857 4.53613 2.01436 4.53613 2.42857L4.53613 21C4.53613 21.4142 4.87192 21.75 5.28613 21.75Z" fill="white"/>
<path fill-rule="evenodd" clip-rule="evenodd" d="M10.0212 7.3148C10.3526 7.06627 10.4198 6.59617 10.1712 6.2648L6.28553 1.08385C5.78553 0.417182 4.78553 0.417179 4.28553 1.08385L0.399817 6.2648C0.15129 6.59617 0.218447 7.06627 0.549818 7.3148C0.881188 7.56333 1.35129 7.49617 1.59982 7.1648L5.28553 2.25051L8.97124 7.1648C9.21977 7.49617 9.68987 7.56333 10.0212 7.3148Z" fill="white"/>
<path fill-rule="evenodd" clip-rule="evenodd" d="M14.7139 0.25C14.2997 0.25 13.9639 0.585786 13.9639 1L13.9639 19.5714C13.9639 19.9856 14.2997 20.3214 14.7139 20.3214C15.1281 20.3214 15.4639 19.9856 15.4639 19.5714L15.4639 1C15.4639 0.585786 15.1281 0.25 14.7139 0.25Z" fill="white"/>
<path fill-rule="evenodd" clip-rule="evenodd" d="M9.97876 14.6852C9.64738 14.9337 9.58023 15.4038 9.82876 15.7352L13.7145 20.9162C14.2145 21.5828 15.2145 21.5828 15.7145 20.9162L19.6002 15.7352C19.8487 15.4038 19.7816 14.9337 19.4502 14.6852C19.1188 14.4367 18.6487 14.5038 18.4002 14.8352L14.7145 19.7495L11.0288 14.8352C10.7802 14.5038 10.3101 14.4367 9.97876 14.6852Z" fill="white"/>
</svg>
