<svg width="21" height="20" viewBox="0 0 21 20" fill="none" xmlns="http://www.w3.org/2000/svg">
<path d="M8.60946 9.16667V14.1667M11.896 9.16667V14.1667M3.67969 5.83333H16.8258M16.0041 5.83333L15.2918 15.9517C15.2623 16.3722 15.0767 16.7657 14.7726 17.053C14.4684 17.3403 14.0683 17.5 13.6526 17.5H6.85282C6.43719 17.5 6.037 17.3403 5.73284 17.053C5.42869 16.7657 5.24318 16.3722 5.21367 15.9517L4.50132 5.83333H16.0041ZM12.7176 5.83333V3.33333C12.7176 3.11232 12.631 2.90036 12.477 2.74408C12.3229 2.5878 12.1139 2.5 11.896 2.5H8.60946C8.39155 2.5 8.18257 2.5878 8.02848 2.74408C7.8744 2.90036 7.78783 3.11232 7.78783 3.33333V5.83333H12.7176Z" stroke="#F32D2D" stroke-width="1.4" stroke-linecap="round" stroke-linejoin="round"/>
</svg>
